<?xml version="1.0" standalone="no"?>
<!DOCTYPE svg PUBLIC "-//W3C//DTD SVG 20010904//EN"
 "http://www.w3.org/TR/2001/REC-SVG-20010904/DTD/svg10.dtd">
<svg version="1.0" xmlns="http://www.w3.org/2000/svg"
 width="533.000000pt" height="242.000000pt" viewBox="0 0 533.000000 242.000000"
 preserveAspectRatio="xMidYMid meet">

<g transform="translate(0.000000,242.000000) scale(0.100000,-0.100000)"
fill="#000000" stroke="none">
<path d="M1865 2163 c-216 -28 -399 -106 -557 -237 -124 -103 -242 -268 -293
-409 -12 -34 -27 -63 -32 -64 -5 -2 -21 81 -36 184 -16 104 -31 203 -34 221
l-5 33 -126 -3 -126 -3 -55 -127 c-31 -70 -61 -128 -66 -128 -6 0 -37 59 -69
130 l-58 131 -127 -3 -126 -3 -7 -45 c-18 -124 -99 -628 -104 -651 l-5 -26
128 -10 128 -10 -122 -1 c-74 -1 -123 -6 -123 -12 0 -6 161 -11 448 -12 l447
-3 7 -80 c4 -44 19 -120 33 -169 103 -359 392 -630 760 -713 99 -22 126 -25
260 -20 168 5 251 23 385 81 252 109 461 332 552 589 l28 78 -23 -7 c-12 -3
-93 -36 -180 -72 -155 -64 -160 -67 -202 -122 -94 -122 -234 -227 -368 -275
-361 -131 -761 43 -945 410 -48 96 -78 184 -88 253 l-7 52 2007 0 c1331 0
2006 3 2006 10 0 6 -32 10 -72 11 l-73 1 65 12 64 11 16 108 c16 108 16 108
-4 102 -12 -4 -60 -9 -108 -12 -77 -5 -92 -3 -140 20 -157 71 -136 251 34 302
64 19 98 19 168 1 30 -8 56 -14 57 -13 0 1 -8 48 -19 105 -17 81 -25 105 -42
114 -11 6 -63 11 -116 10 -273 -2 -460 -157 -460 -382 0 -187 123 -314 354
-365 53 -11 -46 -13 -714 -13 -426 0 -768 2 -759 5 8 2 67 7 130 11 l114 7 3
258 2 257 80 0 80 0 0 105 0 105 -286 -2 -286 -3 -29 -95 c-16 -52 -29 -98
-29 -102 0 -5 43 -8 95 -8 l94 0 3 -270 3 -270 -265 1 c-276 2 -297 5 -118 17
l107 7 3 370 c3 365 3 370 -17 368 -11 -1 -73 -5 -137 -8 l-118 -7 0 -374 0
-374 -647 1 c-591 1 -641 2 -563 15 251 41 409 224 370 431 -26 134 -131 241
-287 289 -73 23 -95 26 -203 23 -66 -2 -120 -1 -120 3 0 17 139 120 211 158
109 57 208 80 338 80 134 0 211 -18 329 -76 68 -34 113 -66 169 -118 l76 -71
-50 -223 c-27 -123 -53 -224 -57 -225 -5 -1 -34 105 -65 237 l-56 239 -134 -7
c-74 -3 -136 -7 -137 -9 -3 -3 72 -257 151 -512 20 -66 42 -138 49 -160 l12
-40 168 -5 c106 -3 171 -1 175 5 8 10 72 213 162 515 28 96 54 180 56 186 3 8
-32 14 -111 19 -64 4 -116 10 -116 13 0 3 8 14 17 25 17 18 17 20 -7 39 -40
32 -151 94 -217 121 -149 60 -352 89 -498 70z m-213 -495 c119 -65 114 -229
-9 -289 -154 -75 -339 45 -294 189 36 117 185 165 303 100z m-1204 -361 c40
-86 72 -159 72 -162 0 -3 -47 -5 -105 -5 -77 0 -105 3 -105 13 0 6 10 85 22
175 17 123 25 159 33 150 7 -7 44 -84 83 -171z m277 2 l21 -169 -107 0 -108 0
80 171 c43 95 79 174 79 177 0 3 3 2 8 -2 4 -4 16 -84 27 -177z m536 -94 c54
-28 111 -46 189 -60 75 -13 75 -13 -112 -14 l-188 -1 0 81 0 81 39 -35 c22
-20 54 -43 72 -52z m-321 -65 c0 -6 -36 -9 -92 -8 -76 1 -84 2 -48 8 71 11
140 11 140 0z m157 -46 c8 -21 -13 -42 -28 -27 -13 13 -5 43 11 43 6 0 13 -7
17 -16z m3 -145 c0 -82 -1 -89 -20 -89 -18 0 -20 7 -20 88 0 93 3 104 26 95
11 -4 14 -27 14 -94z"/>
<path d="M3920 1528 l0 -363 252 0 251 0 23 74 c12 41 25 84 28 97 l6 24 -145
0 -145 0 0 40 c0 25 5 40 13 41 6 0 46 2 87 2 l75 2 3 88 3 87 -91 0 -91 0 3
38 3 37 133 3 c111 2 133 5 128 17 -3 8 -15 50 -27 95 l-22 80 -244 0 -243 0
0 -362z"/>
</g>
</svg>
